<?xml version="1.0" encoding="utf-8"?>
<svg xmlns="http://www.w3.org/2000/svg" width="262" height="135" viewBox="0 0 262 135" fill="none">
<path d="M112.678 113.014C112.333 113.555 111.93 114.015 111.504 114.325C109.768 115.567 106.502 116.637 103.661 116.671C101.418 117.2 98.8537 116.763 96.657 116.671C96.5075 116.671 96.381 116.614 96.2545 116.568C96.2085 116.568 96.1625 116.568 96.128 116.579C95.0239 116.269 94.0004 115.958 93.1378 115.682C92.4823 115.326 91.7922 115.084 91.0562 114.946C90.9297 114.889 90.8262 114.843 90.7457 114.797C87.8015 113.198 85.3863 110.507 83.9027 108.414C82.4191 106.332 76.6113 102.56 74.6446 105.895C74.6446 105.895 64.3285 99.0061 63.2819 107.735C63.2819 107.735 53.4488 104.779 53.7478 111.013C53.7478 111.013 48.7335 112.611 49.044 114.992C49.3545 117.373 50.9071 119.006 53.0578 118.971C53.0578 118.971 51.3211 122.031 54.0123 123.997C56.8415 126.067 59.4177 126.447 62.0283 124.17C62.5919 125.389 65.8581 130.645 71.9189 126.171C71.9189 126.171 71.9419 128.862 75.9442 128.16C79.958 127.459 83.9832 125.722 86.1799 123.468C87.79 121.824 90.9412 119.673 93.7013 118.707C93.7358 118.799 97.0366 118.431 100.372 118.362C100.97 118.546 101.556 118.753 102.143 119.029C102.189 119.052 102.235 119.075 102.281 119.098C104.466 119.362 106.64 119.765 108.848 119.351C110.17 119.098 111.458 118.638 112.689 118.028C113.874 117.154 114.92 116.108 115.737 114.992C115.783 114.935 115.806 114.866 115.84 114.808C115.288 113.67 114.081 113.037 112.712 113.014" fill="#85AD72"/>
<path d="M78.6626 89.1846C79.9736 90.3807 75.1088 92.3818 79.8356 97.9597C84.5509 103.549 94.5911 107.413 96.4197 109.391C96.8222 109.828 98.5243 112.531 103.895 115.372C104.137 115.498 106.782 116.821 106.782 116.821C106.782 116.821 113.475 116.579 109.588 115.636C105.701 114.705 98.4438 109.012 97.6963 108.345C97.6963 108.345 96.8452 107.298 96.9717 106.194C97.0983 105.09 99.3294 97.0741 96.9717 96.4301C96.9717 96.4301 100.916 91.0937 97.7883 90.4382C97.7883 90.4382 100.445 81.7321 96.5347 81.4791C96.5347 81.4791 96.1322 74.2911 92.0839 74.4176C92.0839 74.4176 90.9454 67.7587 87.1386 69.2538C87.3916 69.1503 87.6216 69.0698 87.8517 69.0238C86.8396 68.9433 85.5975 69.5068 84.0449 71.1744C84.0449 71.1744 75.5114 72.3705 78.8121 79.1789C78.8121 79.1789 73.2227 84.1358 78.6856 89.1386" fill="#85AD72"/>
<path d="M172.873 97.5971C171.298 97.7121 170.366 99.1611 169.274 100.116C168.595 100.702 167.882 101.082 167.077 101.277C165.835 101.714 164.489 101.726 163.213 102.174C161.982 102.6 161.131 103.336 160.406 104.187C158.164 105.395 156.393 106.74 153.322 106.648C150.941 106.568 148.94 105.705 147.031 104.567C145.732 102.715 143.983 100.622 141.097 98.4826C136.485 95.0554 130.999 94.0778 125.962 95.4694C123.719 95.3544 121.396 96.424 119.487 97.7351C117.624 99.0116 116.175 100.725 114.45 102.186C113.069 103.347 111.919 104.498 110.919 105.935C109.619 108.362 108.584 110.478 108.067 113.215C108.021 113.457 107.952 113.687 107.906 113.917C107.986 114.009 108.055 114.124 108.032 114.296C107.975 114.894 107.998 115.481 108.021 116.079C108.055 116.366 108.101 116.665 108.124 116.964C108.182 116.964 108.239 116.964 108.285 116.964C108.619 118.977 108.987 120.967 110.022 122.841C110.171 123.117 110.62 123.75 111.045 124.463C111.126 124.543 111.195 124.635 111.275 124.716C112.552 127.453 115.278 129.857 117.635 131.317C118.889 132.099 121.189 133.226 123.087 133.238C126.778 134.491 131.402 134.756 135.542 133.617C137.531 133.077 139.406 132.203 141.028 130.972C144.512 128.316 147.882 124.969 148.561 123.75L148.595 123.669C148.595 123.669 148.63 123.6 148.664 123.52C148.722 123.485 148.779 123.462 148.837 123.405C150.021 122.163 151.206 120.932 152.39 119.69C153.126 118.379 154.024 117.148 154.99 115.987C155.933 114.848 156.933 114.02 158.095 113.192C160.659 112.548 163.006 111.363 164.627 109.04C164.892 108.672 165.133 108.316 165.375 107.971C165.973 107.637 166.559 107.281 167.134 106.913C167.537 106.821 167.951 106.671 168.376 106.395C169.159 105.901 169.78 105.211 170.343 104.463C170.895 104.152 171.447 103.784 171.965 103.29C172.758 102.554 173.379 101.795 173.92 101.013C174.518 99.2762 174.748 97.4475 172.873 97.5855" fill="#85AD72"/>
<path d="M184.301 16.8667C183.684 15.7443 183.671 15.7409 182.902 16.7793C182.643 17.1342 182.299 17.3834 181.915 17.5665C180.998 18.0212 180.527 18.8267 180.261 19.7681C180.195 20.0314 180.105 20.3869 180.24 20.5752C180.751 21.3349 181.148 21.3791 180.002 22.4623C179.098 23.0323 178.902 24.1453 180.241 23.8536C181.717 23.5261 182.017 23.8962 181.384 24.9549C181.192 25.2705 180.83 26.0336 180.618 26.3162C179.282 28.0378 180.041 29.4343 180.772 31.2161C180.874 31.4801 181.052 31.7212 181.33 31.7914C182.226 32.0319 181.888 32.4788 181.503 32.8859C180.374 34.1273 179.257 35.372 178.071 36.5571C176.812 37.8079 176.053 39.3109 175.693 41.013C175.093 43.8873 174.906 46.7959 175.391 49.7202C175.646 51.2136 176.448 52.4389 177.316 53.6249C178.56 55.3262 179.883 56.9916 181.462 58.3712C183.642 60.267 184.2 62.5655 183.829 65.2593C183.748 65.8554 183.734 66.4682 183.707 67.0776C183.696 67.2852 183.689 67.5916 183.805 67.6908C184.634 68.3627 183.982 68.8842 183.706 69.473C182.734 71.4826 181.112 72.6134 178.981 73.1395C178.217 73.3246 177.495 73.6745 176.76 73.9651C176.555 74.0533 176.224 74.1378 176.353 74.4644C176.448 74.6987 176.73 74.6437 176.925 74.595C177.639 74.4394 178.347 74.2542 179.065 74.0854C179.35 74.0173 179.641 73.9228 179.942 73.8448C179.985 74.1777 179.703 74.2887 179.633 74.5092C179.53 74.9174 179.039 75.858 179.416 75.7572C179.446 75.7507 180.112 74.8965 180.142 74.89C181.616 73.6795 183.273 73.7481 185.035 74.1235C185.729 74.2709 186.493 74.0299 187.191 73.7721C187.393 73.6971 187.737 73.6719 187.655 73.329C187.593 73.0751 187.308 73.1432 187.1 73.1326C186.488 73.104 185.88 73.0623 185.268 73.0337C184.517 72.9981 184.475 72.6091 184.78 72.0699C185.387 71.0045 186.149 70.0485 187.103 69.2809C187.884 68.638 188.682 68.0412 189.12 67.0873C189.432 66.4097 189.802 66.9514 190.023 67.1894C190.898 68.125 191.693 69.1525 192.293 70.2848C192.778 71.2058 193.422 71.9429 194.423 72.3221C194.899 72.4985 195.041 72.8285 194.984 73.3324C194.896 74.2348 194.875 75.154 194.801 76.0598C194.709 77.2555 194.438 77.5511 193.237 77.8499C192.638 77.9927 192.033 78.1058 191.454 78.2816C191.149 78.3728 190.696 78.4964 190.765 78.892C190.85 79.3338 191.3 79.1674 191.614 79.1488C191.915 79.1268 192.213 79.0619 192.527 79.0433C192.769 79.0343 193.076 79.042 192.996 79.414C192.85 80.1054 193.333 80.0314 193.621 79.838C195.193 78.7366 196.82 79.2038 198.456 79.6314C198.972 79.7618 199.768 80.0612 199.915 79.4818C200.051 78.942 199.158 78.9684 198.699 78.8383C197.978 78.6281 197.625 78.2446 197.652 77.4671C197.694 76.1889 197.637 74.9136 197.652 73.6287C197.66 72.9862 197.734 72.3605 198.102 71.7951C198.397 71.3513 198.335 70.8734 198.249 70.3755C197.961 68.5096 198.247 67.7133 199.942 66.8529C201.507 66.0579 202.521 64.8293 203.575 63.4987C204.814 61.9348 206.338 60.5829 207.475 58.9231C207.81 58.4334 208.011 58.8064 208.202 59.1069C208.746 59.959 208.804 60.9542 208.971 61.907C209.014 62.1279 208.941 62.4736 209.255 62.511C209.543 62.5417 209.573 62.1991 209.656 61.982C209.756 61.699 209.902 61.3997 209.905 61.1065C209.961 57.6603 212.022 57.1307 212.265 53.7181C214.585 57.0081 213.426 58.0319 212.66 61.4525C213.109 61.5101 213.189 61.1941 213.312 60.987C215.375 57.4459 215.769 54.7719 215.817 52.1362C215.767 51.9417 215.649 51.6875 215.844 51.5268C216.705 50.7919 216.474 50.6493 216.426 49.6706C216.416 49.5981 216.492 49.5193 216.509 49.4535C217.357 52.7777 217.735 53.728 216.955 57.4812C217.892 56.9476 218.337 56.1354 218.695 55.2734C219.565 53.1679 219.579 50.9439 219.609 48.7101C219.617 47.5636 219.95 48.1941 220.005 47.0312C220.268 47.7702 221.524 48.7039 221.979 49.3513C222.154 49.6056 222.226 50.1001 222.636 49.9797C223.013 49.8789 222.905 49.4172 222.942 49.1044C223.197 46.7594 223.533 45.5415 222.729 43.3212C222.591 42.922 221.393 41.5965 221.919 41.1832C222.4 40.7863 222.96 41.7405 223.677 42.1319C224.269 42.4635 225.141 42.6841 225.661 42.1292C226.178 41.5874 225.7 40.8641 225.446 40.2536C225.291 39.8643 227.054 39.6796 228.88 41.808C230.728 43.9563 232.527 44.2989 233.72 46.8698C232.836 43.3544 231.313 40.1957 228.791 37.5409C225.889 34.4959 222.735 31.8355 218.666 30.5127C215.142 29.3699 211.838 29.9214 208.808 31.9994C206.458 33.6185 204.374 35.4594 203.748 38.4389C203.698 38.6364 203.749 39.546 203.103 38.7101C202.858 38.3962 202.696 38.8173 202.609 38.9917C202.271 39.6626 202.187 40.3838 202.183 41.1252C202.178 41.9785 202.186 42.8352 202.169 43.6852C202.151 44.2551 201.813 44.534 201.278 44.4826C199.085 44.2506 197.039 43.6074 195.176 42.4079C194.608 42.0401 194.354 41.4297 194.127 40.8259C193.409 38.9914 193.293 37.1129 193.475 35.1696C193.845 31.1447 192.856 27.3784 191.122 23.7742C190.726 22.9458 190.023 22.3337 189.419 21.6627C189.542 21.4556 189.703 21.5385 189.842 21.5456C190.563 21.5317 191.268 21.4717 191.597 20.6722C191.889 19.9616 191.633 18.7482 191.061 18.2255C190.629 17.822 190.127 17.527 189.588 17.3207C189.013 17.0913 188.693 16.8002 189.12 16.1659C189.279 15.9259 189.475 15.5971 189.141 15.3587C188.867 15.1633 188.616 15.3799 188.394 15.5339C187.917 15.8617 187.47 16.239 186.983 16.5502C186.679 16.7534 186.404 16.8941 186.286 16.3039C186.102 15.4169 185.715 15.3332 185.073 15.9832C184.804 16.2656 184.559 16.5678 184.297 16.8799" fill="#85AD72"/>
<path d="M138.533 18.0068L138.104 17.732C139.479 8.56582 136.072 3.28338 126.431 -0.000976562C126.242 3.6705 125.964 7.25457 125.901 10.8511C125.813 15.3343 127.819 18.831 131.782 20.4794C133.952 21.391 135.138 22.7023 135.542 24.3757C132.463 26.6984 130.23 28.147 128.362 29.9828C125.106 33.1922 122.507 37.2258 118.961 40.0107C111.402 45.93 109.206 55.833 115.226 62.4517C117.484 64.9368 121.346 65.8984 124.475 67.5718C130.381 70.7187 135.832 69.8071 140.577 65.1741C145.549 60.3037 146.622 54.4219 144.464 47.7657C143.606 45.1433 142.735 42.321 142.861 39.6235C143.252 31.2815 143.442 31.294 138.848 25.7369C146.487 21.4909 151.274 17.2908 153.209 13.1364C146.849 11.2383 141.864 13.1239 138.546 18.0317" fill="#D4A366"/>
<path d="M233.753 103.715C242.518 97.499 251.832 92.7623 259.719 86.5214C261.231 85.3279 263.133 81.1383 261.146 78.9378C259.158 76.7373 256.159 78.0426 253.965 78.6767C251.893 79.2734 250.027 81.1383 248.406 82.7793C242.798 88.523 235.886 93.6077 230.302 99.5254C225.158 94.0801 219.709 91.6559 219.709 91.6559C219.709 91.6559 207.103 110.13 202.032 118.174C200.569 120.486 199.13 124.812 200.203 127.324C200.739 128.579 207.067 128.865 209.395 127.933C218.392 124.315 240.592 115.24 240.592 115.24C240.592 115.24 238.544 109.67 233.753 103.703" fill="#FAC18F"/>
<path d="M32.9437 95.7019C39.0817 90.1243 42.5495 84.9784 42.0662 81.2241C41.9335 80.1792 39.9921 77.3299 39.4133 76.4617C39.2388 76.2058 37.4963 74.1159 35.9904 72.4235C39.5408 68.6281 48.2421 59.2878 51.8796 55.8854C57.6143 50.5292 67.3709 41.7301 73.479 35.7728C75.7971 37.7069 78.9454 38.1989 81.3846 36.4379C82.0247 36.084 87.4389 33.2467 86.371 31.7023C85.3031 30.1578 78.2398 20.1649 77.4592 19.2683C76.689 18.3765 70.3509 22.222 70.3534 28.877C70.3572 29.6489 70.457 30.376 70.6121 31.0649C65.9596 35.6488 53.5939 48.2279 49.4852 51.5557C46.4653 54.0132 34.9286 65.7936 31.6336 68.9976C29.5111 67.4678 26.3382 65.5253 26.3382 65.5253C25.5849 65.2092 24.1283 64.1326 23.3412 64.1422C17.6514 64.2158 13.5459 72.4692 10.2251 77.1514C6.61636 82.2461 3.75151 86.2006 3.11445 89.0559C3.00563 89.5747 1.05376 92.9075 2.26043 93.5047C3.88614 94.2918 6.6263 91.1141 10.6185 85.1452C14.0168 80.0688 19.7095 70.6532 22.6614 70.1851C22.8004 70.1849 24.4149 71.2194 25.8981 72.1818C23.8193 74.4849 19.0811 79.7875 17.5932 81.929C15.6663 84.7049 12.8594 88.5594 10.7007 92.4045C8.54193 96.2496 10.9334 95.9316 12.658 94.3267C14.3827 92.7217 21.1639 83.1049 22.7217 81.3107C23.8851 79.9691 27.3488 76.1976 28.9989 74.3948L31.2878 76.505C29.513 79.0846 24.8288 85.8006 21.2042 90.3452C16.6311 96.0636 16.4353 98.6137 17.2727 99.2457C18.1054 99.8881 22.4962 94.5164 24.7397 91.543C26.5139 89.2156 32.308 82.5858 34.7098 79.8483C35.7668 80.9711 36.8705 82.2413 37.0855 82.8816C37.5258 84.167 33.3557 89.3861 28.5154 93.7713C23.6752 98.1565 20.8478 101.61 21.9345 102.974C23.026 104.327 26.7638 101.26 32.9018 95.6829M76.5031 22.7998C77.3152 23.7106 82.1218 30.6862 83.2131 31.9003C84.3044 33.1144 78.2531 36.3828 74.5846 32.3849C70.7123 28.1684 75.6911 21.8889 76.5031 22.7998Z" fill="#FAC18F"/>
</svg>